<!-- <svg width="42" height="39" viewBox="0 0 42 39" fill="none" xmlns="http://www.w3.org/2000/svg">
<path fill-rule="evenodd" clip-rule="evenodd" d="M21.4998 4.46875C22.5635 4.46875 23.5835 4.85396 24.3356 5.53964C25.0877 6.22532 25.5103 7.1553 25.5103 8.125V8.5475C24.5175 8.53125 23.4284 8.53125 22.2306 8.53125H20.7673C19.5731 8.53125 18.4822 8.53125 17.4876 8.5475V8.125C17.4876 7.64472 17.5914 7.16914 17.7931 6.72544C17.9947 6.28174 18.2903 5.8786 18.6629 5.53907C19.0355 5.19953 19.4778 4.93025 19.9646 4.7466C20.4513 4.56295 20.973 4.46854 21.4998 4.46875ZM14.8158 8.658V8.125C14.8158 6.50884 15.52 4.95887 16.7735 3.81607C18.027 2.67327 19.7271 2.03125 21.4998 2.03125C23.2726 2.03125 24.9727 2.67327 26.2262 3.81607C27.4797 4.95887 28.1839 6.50884 28.1839 8.125V8.658C28.4388 8.6775 28.6829 8.70025 28.9218 8.72787C30.722 8.931 32.205 9.35675 33.4669 10.3106C34.7271 11.2645 35.4597 12.5157 36.0104 14.092C36.5451 15.6195 36.948 17.5809 37.4542 20.0492L37.4916 20.228C38.2081 23.7104 38.7714 26.455 38.8765 28.6179C38.9835 30.836 38.6199 32.6723 37.2474 34.1786C35.875 35.6866 33.9624 36.3496 31.5526 36.6632C29.1998 36.9688 26.1395 36.9688 22.252 36.9688H20.7459C16.8602 36.9688 13.7981 36.9688 11.4471 36.6632C9.03725 36.3496 7.12294 35.6866 5.75049 34.1786C4.37804 32.6723 4.01799 30.836 4.12315 28.6179C4.22653 26.455 4.79155 23.7104 5.50808 20.228L5.54373 20.0492C6.05172 17.5809 6.45632 15.6179 6.98748 14.092C7.54003 12.5157 8.27081 11.2645 9.53276 10.3106C10.7929 9.35675 12.2777 8.92937 14.0779 8.72787C14.3234 8.70043 14.5694 8.67713 14.8158 8.658ZM28.5938 11.1475C30.1178 11.3181 31.0393 11.6415 31.7594 12.1875C32.4777 12.7303 32.9964 13.4956 33.4634 14.8314C33.9393 16.1964 34.3154 18.0131 34.8429 20.579C35.5844 24.1816 36.1102 26.754 36.2047 28.7251C36.2974 30.6589 35.9552 31.7801 35.1905 32.6235C34.4241 33.4636 33.278 33.9755 31.1748 34.2485C29.0359 34.528 26.1626 34.5312 22.1415 34.5312H20.8582C16.8353 34.5312 13.9656 34.528 11.8249 34.2501C9.7217 33.9755 8.57561 33.4636 7.80917 32.6235C7.04274 31.7817 6.7023 30.6605 6.7932 28.7235C6.88945 26.7556 7.41526 24.1816 8.15674 20.579C8.68433 18.0115 9.05864 16.198 9.53632 14.8314C10.0033 13.4956 10.5202 12.7303 11.2403 12.1859C11.9604 11.6415 12.8801 11.3181 14.4059 11.1459C15.9673 10.9704 17.9938 10.9688 20.8582 10.9688H22.1415C25.0058 10.9688 27.0324 10.9704 28.5938 11.1475Z" fill="white"/>
</svg> -->
<svg xmlns="http://www.w3.org/2000/svg" width="36" height="36" viewBox="0 0 24 24" fill="none" stroke="white" stroke-width="2" stroke-linecap="round" stroke-linejoin="round" class="ai ai-ShoppingBag"><path d="M3.977 9.84A2 2 0 0 1 5.971 8h12.058a2 2 0 0 1 1.994 1.84l.803 10A2 2 0 0 1 18.833 22H5.167a2 2 0 0 1-1.993-2.16l.803-10z"/><path d="M16 11V6a4 4 0 0 0-4-4v0a4 4 0 0 0-4 4v5"/></svg>