<svg id="SvgjsSvg1001" width="550" height="550" xmlns="http://www.w3.org/2000/svg" version="1.1" xmlns:xlink="http://www.w3.org/1999/xlink" xmlns:svgjs="http://svgjs.com/svgjs"><defs id="SvgjsDefs1002"></defs><g id="SvgjsG1008"><svg xmlns="http://www.w3.org/2000/svg" viewBox="0 0 2000 2000" width="550" height="550"><path fill="#1d0a03" d="M972.86 1753l-5.48 126.11a8.55 8.55 0 008.54 8.92h196a8.53 8.53 0 007.24-13.1 114.71 114.71 0 00-59.08-46.21 8.47 8.47 0 01-5.71-8v-70.53a8.56 8.56 0 00-8.77-8.55l-124.43 3.23A8.55 8.55 0 00972.86 1753zM760.67 1751.17q5.33 35.26 10.66 70.54a8.47 8.47 0 01-4.18 8.68 88.45 88.45 0 00-39.64 46.16 8.53 8.53 0 008 11.46H904.05a8.55 8.55 0 007.88-11.85l-20.5-48.9a8.57 8.57 0 01-.67-3.2q-.43-37.14-.88-74.27a8.56 8.56 0 00-8.55-8.45H769.12A8.55 8.55 0 00760.67 1751.17z" class="color1d0a03 svgShape"></path><path fill="#fc9c86" d="M1362.77,518.64c4.7-14.95,11.87-23.09,17.78-27.8s7.51-3.47,18.1-10.35c15.56-10.1,21.59-19,25.71-16.81,2.88,1.51,2.72,7.32,2.66,9.21-.07,2.3-.63,5.93-4.85,12.13a57,57,0,0,1-14.79,14.79q3.88,23.15,7.76,46.31c-1.12,1-13.5,12-28.61,8.31C1372.31,551,1361.67,536.05,1362.77,518.64Z" class="colorfc9c86 svgShape"></path><path fill="#fc9c86" d="M1464,487.72c-3.88-6.91-33.78-15.31-41.14-11.43s-8.51,9.68,4.23,16.16S1421,526.4,1421,526.4s-27.16,4.52-33.94,16.49,17.37,8.87,17.37,8.87,42.11-14,55-21.16S1467.84,494.63,1464,487.72Z" class="colorfc9c86 svgShape"></path><rect width="98.76" height="163.76" x="820.98" y="282.4" fill="#fc9c86" class="colorfc9c86 svgShape"></rect><path fill="#fc9c86" d="M933.14,366.32c-43,12.36-131.16-40.84-143.56-83.88A81.08,81.08,0,1,1,945.42,237.6a312.17,312.17,0,0,1,8,35.08c.76,4.72,1.56,9.6,2.24,14.56C960.38,321,961.3,358.2,933.14,366.32Z" class="colorfc9c86 svgShape"></path><path fill="#1d0a03" d="M925,253.48a4.24,4.24,0,1,1,2.92-5.28A4.23,4.23,0,0,1,925,253.48Z" class="color1d0a03 svgShape"></path><path fill="#fecd50" d="M937.42,232.56c-.36,2.56-7-3.12-17.56-3.48-6.08-.2-14.64,1.2-15.6-1.4-1.88-5,5.48-8.28,15-7.36C929.78,221.32,937.78,230,937.42,232.56Z" class="colorfecd50 svgShape"></path><path fill="#1d0a03" d="M871.38 268.92a4.25 4.25 0 112.88-5.24A4.22 4.22 0 01871.38 268.92zM919.14 292.56a2.33 2.33 0 01-.76.12 2 2 0 01-1.84-1.2l-13.24-31.8a2 2 0 113.68-1.52l13.24 31.76A2 2 0 01919.14 292.56z" class="color1d0a03 svgShape"></path><path fill="#fecd50" d="M875.74 238.56c-.24 2.72-8.8 3.76-14.6 5.6-10 3.24-14.88 10.56-15.92 8.2s4.24-12.92 14-16.76C868.18 232.08 876.14 233.16 875.74 238.56zM729.29 773.39A21.51 21.51 0 00704 792.64a3667.34 3667.34 0 0045.29 984 21.49 21.49 0 0021.16 17.58h116a21.51 21.51 0 0021.45-23.15l-37.27-487.81a20.24 20.24 0 010-3.21l33.3-455a21.5 21.5 0 00-17.56-22.72z" class="colorfecd50 svgShape"></path><path fill="#fecd50" d="M996,789.13a21.5,21.5,0,0,1,16.87,15.41c18,65,97.9,354.4,110.79,424.65,12.73,69.38,3.17,450.27.59,544.15a21.5,21.5,0,0,1-21.5,20.91H974.59a21.52,21.52,0,0,1-21.51-21.11q-4.85-259.83-9.68-519.66a21.56,21.56,0,0,0-1-6.26l-150.75-463a21.51,21.51,0,0,1,24.3-27.83Z" class="colorfecd50 svgShape"></path><path fill="#fc9c86" d="M821.14 420.29c-26 .48-65.53 5.59-98.92 32.28-13.28 10.62-21.07 21-45.85 57.14-16.83 24.52-38.38 56.35-63.16 94.1L416 471l-36.1 49a533.65 533.65 0 0086.37 98c52.94 46.9 96.67 85.64 148.24 83.78 63.37-2.28 122.35-65.28 153.87-150.81C768.37 551 848 488.78 821.14 420.29zM895.4 405.4c22.24-.27 54.61 2.61 86.8 20 34.07 18.37 49.8 43.31 72.33 70.32 23.38 28.05 60.08 65.56 116.57 102.71L1376 495.68l36.16 46.21c-21.92 29.16-62.9 75.58-128.38 110.35-42.66 22.64-87.51 46.46-144.55 41.1C1086.77 688.41 1037.85 645.6 940 560c-10.7-9.35-25.66-22.8-36.83-45.34C882.32 472.53 889.51 428.65 895.4 405.4z" class="colorfc9c86 svgShape"></path><path fill="#e73f46" d="M697.44,901.9a13,13,0,0,1-8.4-14.54c18.51-107.09,22.32-193.53,22.29-253.62-.06-92.77-8.9-160.39,35.56-199.43,25.3-22.21,57.24-25.24,88.38-28.19C857.2,404,937.84,396.26,979.87,440c40.57,42.22,14.48,100,18.82,213.19,2.13,55.55,11.7,126.24,40.37,208.14a13.06,13.06,0,0,1-6.25,16C992.91,898,920.5,927.81,827.44,925.75A418.89,418.89,0,0,1,697.44,901.9Z" class="colore73f46 svgShape"></path><path fill="#e73f46" d="M868.89,410.05a13.13,13.13,0,0,0-10.3-6.29c-67.53-4.53-104.48,14.27-125,30.59-15.31,12.15-21.53,22.93-64.3,77.06-18.67,23.61-34.78,43.45-46.82,58.11a13.08,13.08,0,0,0,.05,16.66L689,666.53a13.12,13.12,0,0,0,18.52,1.7L775,611.85S918.27,491.59,868.89,410.05Z" class="colore73f46 svgShape"></path><path fill="#e73f46" d="M861.34,407.87a12.77,12.77,0,0,1,8-4.21c36.4-4.61,86.07-4.24,128.84,24,17,11.23,25.53,22,50.31,48.18,21.17,22.39,51.85,53.56,91.77,89.81a13.11,13.11,0,0,1,1.67,17.56l-62.49,83.42a13.12,13.12,0,0,1-18,2.93l-95-65.55a12.49,12.49,0,0,1-1.69-1.39C953.25,591.26,818.31,457.36,861.34,407.87Z" class="colore73f46 svgShape"></path><path fill="#fc9c86" d="M919.74,401.44s-1.6,30.8-40.56,35-58.2-32.8-58.2-32.8,7.16-25,34.44-27.84S919.74,401.44,919.74,401.44Z" class="colorfc9c86 svgShape"></path><path fill="#86ebf9" d="M1611.11,973.81h-365a16.06,16.06,0,0,1-16-14.67l-24-275.45a16.06,16.06,0,0,1,16-17.45h413a16.06,16.06,0,0,1,16,17.45l-24,275.45A16.06,16.06,0,0,1,1611.11,973.81Z" class="color86ebf9 svgShape"></path><rect width="28.34" height="215.41" x="1277.11" y="729.25" fill="#40c2d6" rx="3.29" class="color40c2d6 svgShape"></rect><rect width="28.34" height="215.41" x="1368.65" y="729.25" fill="#40c2d6" rx="3.29" class="color40c2d6 svgShape"></rect><rect width="28.34" height="215.41" x="1460.18" y="729.25" fill="#40c2d6" rx="3.29" class="color40c2d6 svgShape"></rect><rect width="28.34" height="215.41" x="1551.72" y="729.25" fill="#40c2d6" rx="3.29" class="color40c2d6 svgShape"></rect><rect width="490.4" height="49.42" x="1183.39" y="654.32" fill="#40c2d6" rx="3.78" class="color40c2d6 svgShape"></rect><rect width="36.86" height="196.89" x="1404.39" y="487.72" fill="#86ebf9" rx="4.28" class="color86ebf9 svgShape"></rect><path fill="#fc9c86" d="M442.6,489s-45-38.42-62.71-38.42-51.48,40-87.28,38.42-34.78,10.68-20.46,18.86S319.2,518,344.78,514s43.88,18.48,43.88,18.48S433,532.5,442.6,489Z" class="colorfc9c86 svgShape"></path><path fill="#1d0a03" d="M846.64,343.18s39.29,25.14,73.11,24.94v20.52S880.59,383.52,846.64,343.18Z" class="color1d0a03 svgShape"></path><path fill="#fecd50" d="M932.82,211.92c-13.4-13.92-27.16-13.76-27.16-13.76-10,14.92-24.72,0-24.72,0s0,9-9.12,11.56-23.36-4.08-23.36-4.08a24.84,24.84,0,0,1-4.32,13c-6.16,8.52-14,5.6-18.64,11.68-8.36,10.76,9.64,28.36.8,46.48a44.93,44.93,0,0,1-8.44,11.16,49.58,49.58,0,0,1-16.08,10.52c20.16,11.36,33,25.92,30.24,35.6-3.68,12.84-35.72,19.52-53.76,7.48-30.24-20.16-29.48-56.76-25.76-70.36S734.94,266.48,729,247.8s25-42.52,25-42.52-1.12-20.92,17.2-32.48,33.6-.76,38.8-11.2,33.24-23.92,48.6-17.2,17.48-3,31.32-5.2,19.4,10.8,23.48,20.88,21.32-6,28.24,14.2S932.82,211.92,932.82,211.92Z" class="colorfecd50 svgShape"></path><path fill="#fc9c86" d="M824.18,320.72c-9.12,7.12-23.52,3.92-32.2-7.16s-8.32-25.8.8-33,23.52-3.92,32.2,7.16S833.26,313.56,824.18,320.72Z" class="colorfc9c86 svgShape"></path><path fill="#1d0a03" d="M823.58 307.56a2 2 0 01-1.68 2.28c-.4 0-.88.08-1.36.08a10.14 10.14 0 01-9.72-6.32c-1.48-3.8 1.36-7 4.24-9-3.36-3.48-9.68-8.44-14.88-6.68-5.56 1.88-3.48 8.4-3.36 8.68a2 2 0 01-1.28 2.52 2 2 0 01-2.52-1.28c-1.2-3.64-1.52-11.16 5.88-13.72 10.12-3.48 20.44 9.2 20.88 9.76a2.19 2.19 0 01.4 1.72 2.22 2.22 0 01-1.12 1.36c-1.16.52-5.36 3-4.52 5.12 1.72 4.28 6.28 3.8 6.8 3.76A2 2 0 01823.58 307.56zM925.14 316.2c0 4.6-6 8.32-13.4 8.32s-13.36-3.72-13.36-8.32 6-8.28 13.36-8.28S925.14 311.6 925.14 316.2zM617.2 646.2a2 2 0 01-2-1.81l-4-40.39a2 2 0 014-.39l4 40.39a2 2 0 01-1.8 2.19zM1158.35 633.69a2 2 0 01-.72-.14 2 2 0 01-1.15-2.58l12.75-33.3a2 2 0 013.74 1.43l-12.75 33.3A2 2 0 011158.35 633.69zM998.74 612.91h0a2 2 0 01-2-2c.47-25.09 0-122.16 0-123.14a2 2 0 012-2h0a2 2 0 012 2c0 1 .47 98.1 0 123.24A2 2 0 01998.74 612.91zM711.29 646.2h0a2 2 0 01-2-2l1.14-130.48a1.92 1.92 0 012-2 2 2 0 012 2l-1.14 130.48A2 2 0 01711.29 646.2zM881.77 1063.17h-.18a2 2 0 01-1.81-2.18l5.19-56.76a1.91 1.91 0 01.23-.76l21-39a2 2 0 012.72-.81 2 2 0 01.81 2.71L888.91 1005l-5.15 56.35A2 2 0 01881.77 1063.17zM987.58 1285.64a2 2 0 01-1.13-.35l-44.18-30.15a2 2 0 012.26-3.31L988.71 1282a2 2 0 01.52 2.78A2 2 0 01987.58 1285.64zM835.59 1309a2 2 0 01-1.22-3.59l35-26.88a2 2 0 112.44 3.17l-35 26.88A2 2 0 01835.59 1309z" class="color1d0a03 svgShape"></path><path fill="#ffffff" d="M1078.28 1836.16a2 2 0 01-.5-3.94l37.1-9.5a2 2 0 011 3.87l-37.1 9.5A1.66 1.66 0 011078.28 1836.16zM813.27 1836.16l-.24 0-39-4.75a2 2 0 11.48-4l39 4.75a2 2 0 01-.24 4zM928 198.53c-3.61 0-6.88-2.45-9.68-4.55-4.87-3.65-7.83-5.53-11.78-1.61q-5.19 5.15-10.9 4.64c-6.24-.58-10.25-6.28-10.41-6.52a2 2 0 113.28-2.28s3.15 4.43 7.53 4.82c2.5.2 5.11-.95 7.68-3.5 6.6-6.55 12.6-2 17 1.25s7 5 10.14 2.67c7.91-5.82-.38-18-.46-18.11a2 2 0 113.29-2.27c3.69 5.33 8.35 17.13-.46 23.6A8.69 8.69 0 01928 198.53zM852.79 200.43c-.52 0-1.06 0-1.61 0a2 2 0 01-1.91-2.09 1.92 1.92 0 012.08-1.91c5.91.3 10.4-1 13.37-3.75a11.8 11.8 0 003.65-7.35 2 2 0 012.08-1.93 2 2 0 011.92 2.08 15.63 15.63 0 01-4.94 10.13C864 198.8 859 200.43 852.79 200.43zM787.54 275.52a2 2 0 01-1.75-1c-.15-.28-3.69-6.78-1.48-13.39 1.33-4 4.45-7.14 9.25-9.28 12.59-5.61 9.15-20.71 9-21.34a2 2 0 01.25-1.53 2 2 0 011.26-.9c7.24-1.57 11.77-4.4 13.48-8.42 2.38-5.61-1.43-11.89-1.47-11.95a2 2 0 113.41-2.11c.2.33 4.92 8.13 1.74 15.63-2.08 4.89-6.94 8.35-14.45 10.32.65 5 1 18.33-11.6 24-3.71 1.66-6.1 4-7.07 6.86-1.66 4.93 1.15 10.16 1.18 10.21a2 2 0 01-.79 2.72A2.08 2.08 0 01787.54 275.52z" class="colorfff svgShape"></path><path fill="#1d0a03" d="M1519.52 494.3a4 4 0 01-2.83-6.82l80.79-80.78a4 4 0 115.65 5.65l-80.78 80.78A4 4 0 011519.52 494.3zM1454.41 438l-.42 0a4 4 0 01-3.56-4.4l16-153a4 4 0 014.4-3.57 4 4 0 013.56 4.39l-16 153A4 4 0 011454.41 438zM1283.84 494.32a4 4 0 01-3.26-1.67l-81-112.77a4 4 0 016.5-4.67l81 112.78a4 4 0 01-.92 5.58A3.94 3.94 0 011283.84 494.32zM1361.14 445.24a4 4 0 01-3.83-2.84l-23.14-76.48a4 4 0 117.65-2.32L1365 440.08a4 4 0 01-2.67 5A4.29 4.29 0 011361.14 445.24zM1570.93 563.63a4 4 0 01-1.57-7.68l162.21-69.31a4 4 0 013.15 7.36L1572.5 563.31A3.94 3.94 0 011570.93 563.63z" class="color1d0a03 svgShape"></path><path fill="#86ebf9" d="M1176.81,112a106.8,106.8,0,0,0-103.46,133.07l-39.54,39.55a2.19,2.19,0,0,0,1.87,3.72l54.06-7.91A106.72,106.72,0,1,0,1176.81,112Z" class="color86ebf9 svgShape"></path><path fill="#ffffff" d="M1213 158c-16.43-26.18-53.45-22-65.14 5.66-4.9 11.6 12.86 20 17.78 8.29 9.77-23.13 41.11-5.56 30.21 16.53-4.51 9.13-14.09 13.08-20.86 20.32-10.26 11-13.9 24.86-13 39.57.81 12.6 20.36 10.8 19.54-1.82-1.63-25.36 22.81-30.21 32.59-49.49C1220.31 185 1220.33 169.69 1213 158zM1169 269.33c-16.85 0-14.35 26.1 2.42 26.1S1185.81 269.33 1169 269.33z" class="colorfff svgShape"></path></svg></g></svg>