<svg id="SvgjsSvg1237" width="550" height="550" xmlns="http://www.w3.org/2000/svg" version="1.1" xmlns:xlink="http://www.w3.org/1999/xlink" xmlns:svgjs="http://svgjs.com/svgjs"><defs id="SvgjsDefs1238"></defs><g id="SvgjsG1239"><svg xmlns="http://www.w3.org/2000/svg" viewBox="0 0 4680 3120" width="550" height="550"><g data-name="10"><path fill="#ffe7c1" d="M3413,2553.89C3116.52,2312.07,2150,2268.65,1599.21,2338.08c-71.31,9-141.22,27.24-207.37,55.34-111.53,47.4-214.62,122.71,92.34,170.16,424.78,36.74,746.59-179.09,1368.64,91.85S3725,2808.3,3413,2553.89Z" class="colorffe7c1 svgShape"></path><ellipse cx="2001.46" cy="1252.31" fill="#deedff" rx="1159.12" ry="942.31" class="colordeedff svgShape"></ellipse><path fill="#c2deff" d="M2821.29 1544.23c-377.82-261.62-665.17 270-665.17 270l101.28 357.34c517-94.73 903.17-470.29 903.17-919.22 0-127.55-31.24-249.16-87.73-360.12C2791.35 986.26 2758.64 1384.42 2821.29 1544.23zM1417.88 1484c29.78-114.69-52.81-161.56-88.83-168.91 17.7-222.22-171.17-345.64-284.81-376.34 12.34-73.6-9.47-127.26-41-165.52-102.19 140.4-160.91 304.18-160.91 479.13 0 520.43 519 942.32 1159.12 942.32 46.46 0 92.26-2.29 137.3-6.61 1.17-231.9-13.32-449.25-46.59-545.91C2006.3 1392.7 1572.27 1314.72 1417.88 1484z" class="colorc2deff svgShape"></path><path fill="#deedff" d="M2583.55,384.15c371.14,124.12,454,503.7,454,503.7C3027,507.79,2730.83,390.31,2583.55,384.15Z" class="colordeedff svgShape"></path><path fill="#ffffff" d="M1345.45 625.16c-1.62 0-3.18.16-4.77.24a155.79 155.79 0 00-298.34-25.3A115.16 115.16 0 00863.48 711h574.85A93.2 93.2 0 001345.45 625.16zM2047.75 533.38c-1.25 0-2.46.12-3.68.19a120.11 120.11 0 00-230-19.51 88.81 88.81 0 00-137.9 85.51h443.21A71.86 71.86 0 002047.75 533.38zM2874.56 788c-1.24 0-2.45.12-3.67.18a120.11 120.11 0 00-230-19.5 88.77 88.77 0 00-137.9 85.5h443.21A71.86 71.86 0 002874.56 788z" class="colorfff svgShape"></path><path fill="#841539" d="M1481.91,755.69a81.83,81.83,0,0,0-60.41,79V2414.26a66.44,66.44,0,0,0,60.43,66.17l64.93,5.9L1514,747Z" class="color841539 svgShape"></path><path fill="#a92c56" d="M2191.31,796.46,1541.5,743.24A64.28,64.28,0,0,0,1472,807.3V2422.93a64.29,64.29,0,0,0,74.89,63.4l649.81-124.45a64.28,64.28,0,0,0,53.68-63.4V860.53A64.29,64.29,0,0,0,2191.31,796.46Z" class="colora92c56 svgShape"></path><path fill="#fff0db" d="M2164.22,894.68l-596.95-45.84c-32.72-2.51-60.76,21.71-60.76,52.49v1303.1c0,32.56,31.19,57.31,65.44,51.94l597-93.57c27.08-4.25,46.91-26.21,46.91-51.94V947.16C2215.81,919.74,2193.37,896.91,2164.22,894.68Z" class="colorfff0db svgShape"></path><ellipse cx="1801.32" cy="818.08" fill="#f66d5c" rx="14.54" ry="20.09" class="colorf66d5c svgShape"></ellipse><path fill="#f66d5c" d="M1998.68,823.94l-146.79-17.41a13.87,13.87,0,0,0-15.51,13.78v5.1a13.89,13.89,0,0,0,12.71,13.83l146.8,12.3a13.87,13.87,0,0,0,15-13.82h0A13.88,13.88,0,0,0,1998.68,823.94Z" class="colorf66d5c svgShape"></path><path fill="#841539" d="M1932.53,2243.45c-25.23,0-45.68,27.56-45.68,61.57s20.45,61.57,45.68,61.57,45.68-27.57,45.68-61.57S1957.76,2243.45,1932.53,2243.45Z" class="color841539 svgShape"></path><path fill="#f9baa8" d="M2112.64,1236.82,1692,1216.74V880.15a10.15,10.15,0,0,0-20.3,0v346.27a10.16,10.16,0,0,0,9.67,10.14L2102,1256.64v412.54l-257.72,42.45a10.16,10.16,0,0,0-8.51,10v472.78a10.16,10.16,0,0,0,20.31,0V1730.27l257.72-42.46a10.15,10.15,0,0,0,8.5-10V1247A10.15,10.15,0,0,0,2112.64,1236.82Z" class="colorf9baa8 svgShape"></path><path fill="#f9baa8" d="M1844.25 1912.22l-246.1 41.29V1432.37a10.15 10.15 0 00-3-7.22 10.74 10.74 0 00-7.27-2.93l-62 .86a10.15 10.15 0 00.13 20.3h.15l51.7-.72v522.85a10.16 10.16 0 0010.15 10.15 10.58 10.58 0 001.68-.14l257.92-43.28a10.15 10.15 0 10-3.35-20zM2027.53 897.54a10.15 10.15 0 00-10.15 10.15V1065l-78.23-3.26a10.13 10.13 0 00-10.57 10.14v166.83a10.15 10.15 0 0020.3 0V1082.43l78.23 3.27a10.44 10.44 0 007.45-2.82 10.13 10.13 0 003.13-7.33V907.69A10.15 10.15 0 002027.53 897.54z" class="colorf9baa8 svgShape"></path><path fill="#ff4a1d" d="M2240.28 2373.36L2120 2345.78l-120.53-26.62c-40.26-8.54-80.44-17.41-120.77-25.61q-120.81-25.35-242.42-47.26 119.28 32.27 239.31 61.1c40 9.85 80.07 19 120.1 28.56L2116 2363.5l120.54 26.6c40.25 8.55 80.44 17.4 120.77 25.61Q2478.1 2441 2599.69 2463q-119.28-32.22-239.31-61.07C2320.42 2392.08 2280.31 2382.87 2240.28 2373.36zM2257.51 1913.44l-72-5.21-72-4.23c-24-1.06-48-2.47-72.09-3.2-48.08-1.81-96.2-3-144.44-2.33 47.75 6.91 95.61 12 143.52 16.49 23.94 2.41 47.93 4.14 71.89 6.21l72 5.19 72 4.2c24 1.08 48 2.46 72.09 3.19 48.08 1.81 96.2 3 144.44 2.37-47.75-6.89-95.61-12-143.52-16.47C2305.46 1917.25 2281.47 1915.5 2257.51 1913.44zM2012.27 1935.86c-18.46-1.43-37-2.36-55.53-2.39s-37.18.37-55.94 2.65c18.16 5.21 36.47 8.64 54.82 11.44s36.76 4.91 55.21 6.42 37 2.38 55.54 2.41 37.18-.37 55.93-2.67c-18.15-5.24-36.46-8.68-54.81-11.47S2030.73 1937.34 2012.27 1935.86zM2300.47 1847.42c-19.18-.94-38.38-1.37-57.63-.9s-38.52 1.35-57.89 4.13c19 4.73 38.06 7.67 57.17 10s38.25 3.93 57.42 4.94 38.38 1.39 57.63.93 38.52-1.35 57.89-4.16c-19-4.75-38.06-7.7-57.17-10S2319.64 1848.4 2300.47 1847.42z" class="colorff4a1d svgShape"></path><path fill="#870000" d="M1829.25,1471.32a62,62,0,0,0-54.9,91h0l.12.19c.46.87,1,1.7,1.49,2.55l53.32,91.26h9.48l44-91.5c.44-.75.9-1.48,1.31-2.25l.15-.25h0a62,62,0,0,0-54.91-91Z" class="color870000 svgShape"></path><path fill="#e83640" d="M1838.73,1471.32a62,62,0,0,0-54.91,91h0l.12.19c.46.87,1,1.7,1.49,2.55l53.32,91.26,53.47-91.5c.44-.75.9-1.48,1.31-2.25l.15-.25h0a62,62,0,0,0-54.9-91Z" class="colore83640 svgShape"></path><path fill="#870000" d="M1838.73,1508.36a34.17,34.17,0,1,0,34.16,34.16A34.16,34.16,0,0,0,1838.73,1508.36Z" class="color870000 svgShape"></path><ellipse cx="1842.17" cy="1542.52" fill="#ffffff" rx="30.73" ry="34.17" class="colorfff svgShape"></ellipse><path fill="#870000" d="M1644.44,1735.82a67.91,67.91,0,0,0-60.1,99.59h0l.13.22c.51.95,1.08,1.86,1.63,2.79l58.36,99.89h10.37L1703,1838.15c.48-.82,1-1.62,1.43-2.46l.17-.28h0a67.9,67.9,0,0,0-60.1-99.59Z" class="color870000 svgShape"></path><path fill="#e83640" d="M1654.81,1735.82a67.9,67.9,0,0,0-60.09,99.59h0l.13.22c.51.95,1.08,1.86,1.63,2.79l58.36,99.89,58.53-100.16c.48-.82,1-1.62,1.44-2.46l.16-.28h0a67.9,67.9,0,0,0-60.1-99.59Z" class="colore83640 svgShape"></path><circle cx="1654.81" cy="1813.75" r="37.4" fill="#870000" class="color870000 svgShape"></circle><ellipse cx="1658.58" cy="1813.75" fill="#ffffff" rx="33.63" ry="37.4" class="colorfff svgShape"></ellipse><path fill="#7eb8f8" d="M1244.56 1491.64c-1.08 0-2.13.11-3.19.16a104.24 104.24 0 00-199.62-16.93 77.34 77.34 0 00-120.4 64.24 78.11 78.11 0 00.72 10h384.64A62.36 62.36 0 001244.56 1491.64zM1588.48 1198.84c-1.41 0-2.79.14-4.18.21a136.65 136.65 0 00-261.7-22.19 101 101 0 00-156.89 97.28H1670A81.77 81.77 0 001588.48 1198.84zM2436.09 1114.53c-1 0-2 .1-3 .15A96.73 96.73 0 002247.89 1099a71.76 71.76 0 00-111.71 59.61 72.44 72.44 0 00.66 9.25h356.93A57.88 57.88 0 002436.09 1114.53z" class="color7eb8f8 svgShape"></path><polygon fill="#600000" points="3239.93 2498.85 3370.71 2486.33 3388.36 2369.62 3222.79 2389.64 3239.93 2498.85" class="color600000 svgShape"></polygon><path fill="#9a0000" d="M3133.66,1886.51l-300.49-9.3-51.5,110.25-17.27,167.37,74.38,136.81,228.47,37.19,133-67.89s-79.91-11.81-99.83-27.74C2926.45,2052.55,3133.66,1886.51,3133.66,1886.51Z" class="color9a0000 svgShape"></path><polygon fill="#ffffff" points="3182.26 2239.72 3119.6 2221.93 3078.51 2295.57 3251.18 2325.45 3191.28 2282.59 3182.26 2239.72" class="colorfff svgShape"></polygon><path d="M3183.93,2238.16l-65.29-18.54L3075.45,2297l183.84,31.81-66.25-47.4Zm-102.37,56,39-69.88,60,17.05,8.93,42.46,53.56,38.32Z" fill="#000000" class="color000 svgShape"></path><path d="M3285.13,2367.86a285.64,285.64,0,0,0-69.81-68.66l-24-16.61s-71.43,7.76-90.23-28.83L3072,2304.64l72.69,29.08,11-5.77,23.31,12.6,5.64,13.16,84.08,34.82c12.75,5.29,24.45-9.44,16.41-20.67Z" fill="#000000" class="color000 svgShape"></path><path d="M3217.11,2296.6l-25-17.28-1.17.13c-.69.07-69.5,7.1-87.08-27.14l-2.66-5.17-33.77,59.08,77.4,31,10.83-5.66,20.87,11.27,5.71,13.33,85.27,35.32a17.28,17.28,0,0,0,6.64,1.35A17,17,0,0,0,3287.7,2366,288.07,288.07,0,0,0,3217.11,2296.6Zm65.14,85.82a10.27,10.27,0,0,1-12.33,3.2L3187,2351.28l-5.56-13-25.76-13.91-11.23,5.87-68-27.2,24.62-43.07c9.3,13.22,27,21.83,51.68,25.05a183.79,183.79,0,0,0,37.62.81l23.09,15.95a281.72,281.72,0,0,1,69,67.91A10.25,10.25,0,0,1,3282.25,2382.42Z" fill="#000000" class="color000 svgShape"></path><ellipse cx="3522.85" cy="2530.61" fill="#600000" rx="180.77" ry="216.51" transform="rotate(-75.5 3516.345 2524.834)" class="color600000 svgShape"></ellipse><polygon fill="#9a0000" points="3076.55 2368.68 3529.49 2334.14 3611.85 2145.53 3305.2 2169.6 3076.55 2368.68" class="color9a0000 svgShape"></polygon><path fill="#ff4a1d" d="M3379.93,2248.65c-213.86,152.2-22,204.53-22,204.53l179.55,45.67,201.9-51.8,98.3-26.57S3706.82,2145.53,3379.93,2248.65Z" class="colorff4a1d svgShape"></path><ellipse cx="3477.69" cy="2525.3" fill="#9a0000" rx="171.35" ry="175.46" class="color9a0000 svgShape"></ellipse><ellipse cx="3477.69" cy="2525.3" fill="#600000" rx="70.42" ry="72.11" class="color600000 svgShape"></ellipse><path fill="#ff271a" d="M3463.08,2241.17C3259.85,2225.23,3145,2459,3145,2459s15.2,14.62,94.9,39.85c188.61-160.72,297.53,0,297.53,0l201.9-51.8S3642.4,2250.46,3463.08,2241.17Z" class="colorff271a svgShape"></path><path fill="#600000" d="M3526.13,1346c-26.06-22-74.62-7.37-108.46,32.71s-40.15,90.41-14.09,112.41,74.63,7.36,108.47-32.71S3552.19,1368,3526.13,1346Z" class="color600000 svgShape"></path><polygon fill="#4c9c85" points="2239.72 1340.59 2239.72 1715.16 2626.1 1754.28 2749.79 1523.96 2626.1 1252.32 2239.72 1340.59" class="color4c9c85 svgShape"></polygon><polygon fill="#33816d" points="2239.72 1382.84 2626.1 1360.51 2626.1 1303.52 2239.72 1358.62 2239.72 1382.84" class="color33816d svgShape"></polygon><polygon fill="#4c9c85" points="2226.44 1279.48 2226.44 1360.51 2682.88 1295.42 2668.17 1215.2 2226.44 1279.48" class="color4c9c85 svgShape"></polygon><circle cx="2640.96" cy="2283.58" r="191.37" fill="#600000" transform="rotate(-45 2640.956 2283.57)" class="color600000 svgShape"></circle><path fill="#f9baa8" d="M2995.3,957.89a52.89,52.89,0,0,0-15.17-16.6c-17-12.53-38.51-17.25-59.53-19.31-24.8-2.43-50.16-1.57-74.17,5.15s-46.64,19.52-62.88,38.43c-4.46,5.18-8.48,10.93-10.41,17.49a63,63,0,0,0-1.9,13.83q-.43,7-.86,14.06a77.44,77.44,0,0,0,0,14.84,39.68,39.68,0,0,0,24.05,31.06l-22.62-1.14a154.68,154.68,0,0,0,16.72,57.85c2.32,4.49,4.93,8.94,8.64,12.38,5.65,5.25,13.34,7.68,20.9,9.23,21.7,4.45,44.13,2.91,66.22,1.35l42.63-3c7.26-.51,14.63-1,21.43-3.6a56,56,0,0,0,14.65-8.72,106.82,106.82,0,0,0,23.21-25.25c22.07-33.57,23.43-77,15.9-116.46C3000.72,972,2999,964.52,2995.3,957.89Z" class="colorf9baa8 svgShape"></path><path fill="#600000" d="M2854.94,931.73c-9.55-6.86-19.82-13-31.09-16.37s-23.63-4-34.69.08c-6.93,2.53-13.12,6.77-18.88,11.4-11.92,9.59-22.47,21.23-29.06,35s-9,29.94-4.79,44.66c3.35,11.77,10.63,22,18.33,31.53,8,9.85,17.88,19.9,30.53,20.77,8.73.6,17.05-3.35,24.91-7.2l3.06-.26c-4.62-5.34-2.54-13.82,1.61-19.53s10-10.14,13.47-16.29c4.88-8.71,4.12-19.67.52-29,9.72-.28,19.7-.87,28.52-5s16.28-12.5,16.46-22.21C2874.06,947.76,2864.39,938.52,2854.94,931.73Z" class="color600000 svgShape"></path><path fill="#ffab00" d="M3225,1716.39c-27.27-28.24-56.19-55.91-91.28-73.51-32.09-16.09-67.87-23-103.13-29.79l-66.35-12.73c-7.78-1.5-15.72-3-23.58-2-26.67,3.39-41.47,33.16-45,59.82a169.68,169.68,0,0,0,28.49,117.65c16,23,44.68,43.31,70.47,32.33l1.15-6.85a664.6,664.6,0,0,1,168.57,95.91c8,6.26,16,12.88,21.32,21.53,11,17.88,8.52,40.74,4.12,61.27-16.39,76.41-53.68,146.39-86.94,217.11-3.27,6.93-6.53,15-3.49,22,1.84,4.26,5.69,7.27,9.38,10.09,23.43,17.89,47.74,36.14,76.3,43.45,5.46,1.39,11.33,2.36,16.65.49,4.34-1.52,7.84-4.77,11.13-8,58.27-57,95.75-131.47,129.75-205.54,14.3-31.16,28.45-63.74,28.15-98-.25-27.4-9.79-53.9-21.68-78.59C3318.85,1820.36,3273.3,1766.41,3225,1716.39Z" class="colorffab00 svgShape"></path><polygon fill="#ffffff" points="2989.2 2362.38 2924.14 2359.23 2900.78 2440.26 3075.74 2430.29 3007.69 2402.09 2989.2 2362.38" class="colorfff svgShape"></polygon><path d="M2990.47,2360.49l-67.79-3.29-23,83.38,180-9-70.51-31Z" fill="#000000" class="color000 svgShape"></path><path d="M3118.4,2463.92h0a285.4,285.4,0,0,0-83.54-51.09l-27.17-10.74s-67.83,23.73-94.42-7.66l-16.81,56.14,77.38,11.88,9.44-8.11,25.56,7,8.47,11.54,89.78,14.9C3120.71,2490,3128.77,2473,3118.4,2463.92Z" fill="#000000" class="color000 svgShape"></path><path d="M3120.48,2461.54A288,288,0,0,0,3036,2409.9l-28.27-11.18-1.11.39c-.65.23-64.12,25.83-89-3.53v-9l-27,72,84.15,7.21,9.27-8,22.87,6.26,8.58,11.7,91.05,15.1a18.65,18.65,0,0,0,2.95.25,16.9,16.9,0,0,0,11-29.59Zm-1.59,17.21a10.24,10.24,0,0,1-11.28,5.9L3019.09,2470l-8.36-11.4-28.23-7.72-9.61,8.26L2900.53,2448l14.23-47.53c12,10.77,31.25,15.16,56,12.7a183.73,183.73,0,0,0,36.84-7.72l26.1,10.32a281.65,281.65,0,0,1,82.61,50.52A10.24,10.24,0,0,1,3118.89,2478.75Z" fill="#000000" class="color000 svgShape"></path><path fill="#ff8600" d="M3233.55,1900a730.13,730.13,0,0,0-118.45-37.64c16.92,10.91,33.39,22.49,49.24,34.89,8,6.26,16,12.88,21.32,21.53,11,17.88,8.52,40.74,4.12,61.27-8.64,40.29-23.12,78.78-39.73,116.54,4.39-1.14,8.73-4.46,12.2-7.66l53.4-49c9.35-8.59,19.09-17.76,22.89-29.88,5.94-18.92-4.09-40,1.45-59,2-7,6-13.2,8.61-20s3.53-14.88-.39-21C3245,1904.93,3239.11,1902.28,3233.55,1900Z" class="colorff8600 svgShape"></path><path d="M3003.58 2006.64l-.44.16-.46.22zM3011.29 2002l-.39.28-.38.32zM3017.91 1995.18l-.31.38-.28.39C3017.52 1995.7 3017.72 1995.44 3017.91 1995.18zM3022.7 1986.76l-.19.42c-.07.16-.12.32-.19.48z" fill="#000000" class="color000 svgShape"></path><path d="M3032,1977.14a3.9,3.9,0,0,0-2.26-1.74,3.82,3.82,0,0,0-2.92.39l-.77.59a3.76,3.76,0,0,0-1,1.67,40.3,40.3,0,0,1-2.52,9.13l.19-.42-.38.9c.07-.16.12-.32.19-.48a42.39,42.39,0,0,1-4.91,8.38l.31-.38c-.19.26-.39.52-.59.77l.28-.39a40.89,40.89,0,0,1-6.7,6.71l.39-.28-.77.6.38-.32a38.13,38.13,0,0,1-7.76,4.53l.44-.16-.9.38.46-.22a40.91,40.91,0,0,1-9.4,2.56l.49,0-1,.13.51-.08a42.32,42.32,0,0,1-10.06,0c.17,0,.34.07.52.09l-1-.14.49,0a39.93,39.93,0,0,1-9.36-2.55l.15.07.48.2-.91-.38.28.11a2.8,2.8,0,0,0-1.25-.38,2.87,2.87,0,0,0-1.51.07,3.88,3.88,0,0,0-2.27,1.74,3.84,3.84,0,0,0-.38,2.91,3.62,3.62,0,0,0,1.74,2.26,43.54,43.54,0,0,0,8.07,2.72,44.64,44.64,0,0,0,17,.54,40.28,40.28,0,0,0,7.43-1.81,44.28,44.28,0,0,0,7.66-3.46,45,45,0,0,0,6.36-4.53,41.08,41.08,0,0,0,4.94-4.93,44.94,44.94,0,0,0,8-13.49,40.15,40.15,0,0,0,1.92-6.71c.11-.56.21-1.12.29-1.68a2.87,2.87,0,0,0,.07-1.51A3,3,0,0,0,3032,1977.14Z" fill="#000000" class="color000 svgShape"></path><path d="M2994.23 2009.31l-.49 0-.51.08zM2975 2007.08l-.48-.2-.15-.07-.28-.11zM2984.2 2009.45c-.18 0-.35-.06-.52-.09l-.49 0z" fill="#000000" class="color000 svgShape"></path><path fill="#ff9c00" d="M3293.87,1510.31c-20-13.08-44.55-16.78-67.38-24-46.18-14.55-86.49-43.94-132.36-59.46-11.32-3.83-23.65-7.26-31.28-16.46-3.9-4.7-6.19-10.52-8.22-16.28a288.53,288.53,0,0,1-16.4-100.26c.13-8.81.65-17.78-1.57-26.32s-7.79-16.77-16.15-19.56c-6.45-2.16-13.52-.83-20.25-1.83-4.26-.63-8.38-2.2-12.69-2.46-7.75-.47-15.15,3.37-21.29,8.14-20.34,15.78-30.44,41.38-36.23,66.46-7.22,31.29-9.13,64-3.75,95.62,2.56,15.07,6.75,29.81,10.93,44.51q9,31.75,18.05,63.52c2.62,9.22,7,20.1,16.51,21.49l1.09-6.1A1835.62,1835.62,0,0,0,3233.82,1565c5,.17,10.12.32,15-1,9.52-2.53,16.72-10.12,23.39-17.38l23.47-25.55c1.26-1.37,2.59-2.91,2.67-4.77C3298.44,1513.74,3296.07,1511.75,3293.87,1510.31Z" class="colorff9c00 svgShape"></path><path d="M2972.56,1360.51,2955.29,1522c2.62,9.22,7,20.07,16.5,21.47l1.09-6.11A1835.62,1835.62,0,0,0,3233.82,1565c5,.17,10.12.32,15-1a33.89,33.89,0,0,0,12.45-6.68c-46.8-13.38-145.38-40.07-211.26-47.45C2961,1500,2972.56,1360.51,2972.56,1360.51Z" fill="#000000" class="color000 svgShape"></path><path fill="#ff8600" d="M3050.37,1506.47c-35.23-4-58.46-29.39-69-75.62-8.05-35.18-5.32-69.71-5.29-70l-7-.66-17.34,162.16.19.65c2.69,9.46,7.62,22.24,19.35,24l3.36.49,1.07-6a1843.49,1843.49,0,0,0,258,27.14c1.64,0,3.35.11,5.11.11a42.16,42.16,0,0,0,10.88-1.2,37.38,37.38,0,0,0,13.75-7.34l5.26-4.23-6.49-1.85C3211,1539.39,3115.37,1513.74,3050.37,1506.47Zm197.52,54.22c-4.46,1.18-9.5,1-13.95.86a1837.66,1837.66,0,0,1-260.44-27.65l-3.44-.61-1,5.61c-4.18-2.28-7.48-7.88-10.21-17.22l11.87-111c.88,6.93,2.1,14.19,3.78,21.54,11.13,48.83,37.1,76.89,75.1,81.15,61.54,6.89,151,30.45,203.41,45.26A25.18,25.18,0,0,1,3247.89,1560.69Z" class="colorff8600 svgShape"></path><polygon fill="#9a0000" points="3160.64 1681.89 3271.57 1759 3288.84 1699.22 3156.75 1660.7 3160.64 1681.89" class="color9a0000 svgShape"></polygon><polygon fill="#600000" points="3271.57 1759 3392.23 1709.85 3444.25 1648.75 3287.06 1690.29 3271.57 1759" class="color600000 svgShape"></polygon><polygon fill="#d10000" points="3142.55 1607.76 3156.75 1660.7 3288.84 1699.22 3250.85 1507.95 3142.55 1607.76" class="colord10000 svgShape"></polygon><path fill="#ff271a" d="M3250.85,1508l38,191.27,155.41-50.47-5.32-140.8C3376.5,1433.57,3250.85,1508,3250.85,1508Z" class="colorff271a svgShape"></path><circle cx="3413.03" cy="1569.71" r="71.06" fill="#d10000" transform="rotate(-9.22 3412.088 1569.366)" class="colord10000 svgShape"></circle><ellipse cx="3424.99" cy="1569.71" fill="#ffa95e" rx="59.11" ry="71.06" class="colorffa95e svgShape"></ellipse><path fill="#ff271a" d="M3421.13,1714.35l-18.05-8.87a68.69,68.69,0,0,0-62.74,1.1l-31.78,17a82,82,0,0,0-42.78,81l39.42,365,306.65-24.07-150.48-387.31A82,82,0,0,0,3421.13,1714.35Z" class="colorff271a svgShape"></path><path fill="#d10000" d="M3308.56,1723.6l-34.93,21.62a92.77,92.77,0,0,0-42.85,93.14l34.12,219.44A207.67,207.67,0,0,1,3216,2226.4h0a242.14,242.14,0,0,1-184.73,82.69l-9.55-.11c-82.68-.95-160.41-43.31-202.81-114.3-88.88-148.82,57.85-281.13,57.85-281.13l3.18-16.41-280.27-47.82c-156.56,21.22-211.2,227.14-211.2,227.14l332.07,221.82,41.18-19.92,134.31,65.7a242,242,0,0,0,106.35,24.62h45.76A242,242,0,0,0,3244.62,2268l33.44-46.48A207.63,207.63,0,0,0,3314.14,2065Z" class="colord10000 svgShape"></path><polygon fill="#870000" points="2530.62 1869.24 2856.05 1915.73 3133.66 1886.51 3145.03 1854.53 2521.32 1812.13 2530.62 1869.24" class="color870000 svgShape"></polygon><polygon fill="#b1540c" points="2517.34 1715.16 2509.37 1820.1 2879.96 1869.24 3145.03 1854.53 3049.98 1733.76 2517.34 1715.16" class="colorb1540c svgShape"></polygon><ellipse cx="2599.69" cy="2277.6" fill="#9a0000" rx="150.1" ry="185.39" class="color9a0000 svgShape"></ellipse><ellipse cx="2599.69" cy="2277.6" fill="#600000" rx="68.48" ry="84.58" class="color600000 svgShape"></ellipse><path fill="#ff4a1d" d="M2329.52,2074.67a362.42,362.42,0,0,0-11.32,53.85l402.36,169.76,41.18-19.92s9-168.49-87.77-278.64C2568.47,1879.64,2374.68,1921.35,2329.52,2074.67Z" class="colorff4a1d svgShape"></path><path fill="#ff271a" d="M2292.22,2098.33a362,362,0,0,0-11.32,53.84l439.66,146.11s12.9-164.76-83.88-274.91C2531.17,1903.3,2337.39,1945,2292.22,2098.33Z" class="colorff271a svgShape"></path><path fill="#ffab00" d="M2659.73 1734.93l2.63-.76c-2.75-2.49-5.49-5-8.25-7.48zM3009.32 1721.72c-4.08-9.46-8.24-19-14.43-27.24-8.52-11.3-20.53-19.59-33.36-25.56-48.08-22.37-105.11-13-154.74 5.7-48.77 18.37-94.37 45.18-144.43 59.55a2059.44 2059.44 0 01174.42 179.25c11.13 12.92 22.23 26.2 29.29 41.72 9.14 20.06 10.95 42.59 12.24 64.6a1825.83 1825.83 0 01-.47 220.32c-1.5 23.94-3.46 48.17.94 71.75s16.11 46.9 36.36 59.75c34.81 22.1 86.42 2.89 103.58-34.61 7.55-16.5 9.4-34.95 11.15-53q9.51-98.3 19-196.59c3.91-40.39 7.83-80.8 9.9-121.33 1.81-35.49 2.19-71.28-3.51-106.36C3047.5 1811.69 3028.56 1766.34 3009.32 1721.72z" class="colorffab00 svgShape"></path><path fill="#ff8600" d="M2911.14,1949.67a570.94,570.94,0,0,1-109.68-77.39l-3.6-2.71q19.76,21.66,38.92,43.85c11.13,12.92,22.23,26.2,29.29,41.71,9.14,20.07,10.95,42.6,12.24,64.61a1825.83,1825.83,0,0,1-.47,220.32c-1,15.24-2.08,30.61-1.65,45.85,4.41-2.92,5-9.7,5.2-15.3,1.25-41.37,21.72-80,25.34-121.25,1.95-22.13-1-44.5,1.3-66.6,3.4-32.5,18-63,22-95.42,1.15-9.48,1.11-20-4.81-27.49C2921.59,1955.28,2916.26,1952.45,2911.14,1949.67Z" class="colorff8600 svgShape"></path><polygon points="2799.1 1868.33 2799.1 1868.33 2799.1 1868.33 2799.1 1868.33" fill="#000000" class="color000 svgShape"></polygon><path fill="#ffa95e" d="M3431.85 1768.91l-88.33 10a6.06 6.06 0 00.67 12.09c.23 0 .46 0 .69 0l88.33-10a6.06 6.06 0 00-1.36-12zM3441.43 1794.83l-88 11.29a6.06 6.06 0 00.76 12.07 6.81 6.81 0 00.78 0l88-11.29a6.06 6.06 0 10-1.53-12z" class="colorffa95e svgShape"></path><ellipse cx="3442.85" cy="1988.26" fill="#d10000" rx="64.75" ry="118.81" transform="rotate(-11.84 3444.371 1988.948)" class="colord10000 svgShape"></ellipse><ellipse cx="3460.78" cy="1984.5" fill="#ffa95e" rx="62.62" ry="118.81" transform="rotate(-11.85 3459.22 1983.835)" class="colorffa95e svgShape"></ellipse><path fill="#ff7900" d="M2986.76,1379.6q4.38-28.65,8.77-57.29c1.31-8.58,2.8-17.58,8.13-24.45,7.19-9.25,20.24-13.08,26-23.31,7-12.6-.85-29.08-12.59-37.48s-26.39-11.36-39.88-16.51-27.19-14-30.89-28c-4.35-16.43,6.66-33.5,4.45-50.36-2.38-18.15-19.9-31.19-37.83-34.86s-36.45-.15-54.57,2.42-37.32,4.07-54.09-3.26V1103a30.91,30.91,0,0,0-28.31,13.51c-5.4,8.24-6.45,18.5-7.35,28.31l-1,10.48-.12,2.3c-35.28-4.7-74.67,1.93-98.72,28.16-16.11,17.57-23.31,41.76-25.25,65.52s.85,47.61,2.16,71.42c2.44,44.33-.37,89.31-12.7,132-8.35,28.92-21,56.45-29.75,85.24-10.13,33.2-15.09,68.44-10.09,102.79s20.56,67.78,46.63,90.7c16.78,14.77,39.86,25.12,61.39,19.09,12.28-3.44,22.52-11.73,32.5-19.67,22.07-17.56,44.95-34.55,70.75-45.94s55-16.9,82.47-10.68c13.07,3,25.48,8.48,38.65,11,20.88,3.94,42.42,0,63-5.29,11-2.86,22.33-6.39,30.5-14.27,7.74-7.47,11.75-18.11,13.37-28.74,7.76-51.17-33.76-95.72-47.2-145.7C2975.27,1456.35,2981,1417.32,2986.76,1379.6Z" class="colorff7900 svgShape"></path><path fill="#ff5600" d="M2739.65,1243.67v-7.18c-44.66,31.38,37.56,292.71,37.56,292.71s46.87-30.55,12.72-182S2739.65,1243.67,2739.65,1243.67Z" class="colorff5600 svgShape"></path><path fill="#ff5600" d="M2637.65,1436.22c-1.39,6.2-2.91,12.37-4.68,18.49-8.35,28.92-21,56.45-29.75,85.24-2.85,9.36-5.24,18.89-7.17,28.51,58.39,40.74,186.68,105.9,277.58,63C2975.91,1583.24,2711.7,1467.05,2637.65,1436.22Z" class="colorff5600 svgShape"></path><path fill="#ff9c00" d="M2980.81,1568.16l-137.68-60.59c-15.1-6.65-30.59-13.55-42.22-25.26-15.89-16-22.58-38.93-25.66-61.26-5-35.94-2.09-72.5-4.89-108.67a347.28,347.28,0,0,0-8.93-55.7c-5.11-20.88-12.61-42-27.54-57.47s-37-26.76-56.74-18.22c-4.66-4-11.72.37-15.88,4.92-20.29,22.16-31.8,51.06-38.93,80.25s-10.29,59.21-16.29,88.66c-4.89,24-11.67,47.65-14.31,72s-.84,49.92,10.59,71.56c8.91,16.9,23.07,30.33,37,43.43,16.67,15.73,33.39,31.48,51.72,45.25,11.67,8.76,24,16.73,37.45,22.5,13.1,5.64,27,9.1,40.86,12.54,49.45,12.28,99.42,24.62,150.37,25.5,9.24.16,18.69-.09,27.4-3.19,17.62-6.28,29.14-22.84,39.46-38.43,6.08-9.18,12.15-21.56,5.52-30.35C2989.34,1572,2985,1570,2980.81,1568.16Z" class="colorff9c00 svgShape"></path><path fill="#ff5600" d="M2735,1458.63a63.21,63.21,0,0,0-16.75,3.77,58.39,58.39,0,0,0-14.71,8.53,78,78,0,0,0-20.61,25.22c8.43-6.74,16.47-13.47,25.21-18.43a63.36,63.36,0,0,1,27.69-8.62c9.77-.88,19.79.32,29.85,2.31s20.22,5,30.8,7.24a121,121,0,0,0-28.58-15.11A79.13,79.13,0,0,0,2735,1458.63Z" class="colorff5600 svgShape"></path><path fill="#ffffff" d="M2992.83,1036.65a61.31,61.31,0,0,0-53.18-4.78c-7.61,2.93-14.52,7.37-21.75,11.15-12.19,6.36-25.26,10.83-38.27,15.28-6.42,2.2-13,4.42-19.77,4.54-7,.13-13.94-2-20.27-5.1-21.58-10.51-36.31-31-49.47-51.08l-2.66-.44c-5.83,1.54-8.72,8.37-8.58,14.4a25.9,25.9,0,0,0,7.87,17.88c2.82,2.7,6.23,4.73,9,7.48,8.67,8.54,9.22,24,1.18,33.1-4.41,5-10.76,8.07-15,13.21-8.29,10-5.27,27.2,5.94,33.78,3.79,2.23,8.14,3.29,12.41,4.33l32.7,7.93a93,93,0,0,0,33.07,3.4l38.82-1.22a190,190,0,0,0,24-1.78c35.64-5.74,66.65-33.91,75.79-68.83,1.91-7.33,2.86-15.45-.56-22.21C3001.66,1042.94,2997.37,1039.42,2992.83,1036.65Z" class="colorfff svgShape"></path><path fill="#600000" d="M2888.65 987.74l.15-.06Q2889 987.58 2888.65 987.74zM2878.84 997.48c.31-.84-.17.32 0 0zM2893.22 986.47l.22-.05C2893.2 986.46 2893.16 986.47 2893.22 986.47zM2902.7 987.81l.14.06z" class="color600000 svgShape"></path><path fill="#600000" d="M2891.19 976.2c-10.42 1.54-18.93 9.16-22.63 18.83-1 2.65 1.13 5.77 3.68 6.47 3 .81 5.45-1 6.46-3.67l.14-.35c-.17.32.31-.84 0 0l.08-.18q.3-.63.63-1.23a23.65 23.65 0 011.48-2.34 14.35 14.35 0 011.48-1.69 24 24 0 012-1.87c.35-.28-.16.07.49-.35.38-.25.76-.51 1.16-.75a22.75 22.75 0 012.43-1.31l.17-.08-.15.06q.36-.16.15-.06l.36-.14c.53-.18 1-.36 1.58-.52a20.68 20.68 0 012.48-.55c-.06 0 0 0 .22-.05l-.22.05.78-.07c.47 0 .94 0 1.41 0a19 19 0 012.61.14l.21 0-.21 0 .76.16c.46.1.92.2 1.38.33a23.52 23.52 0 012.54.83l.14.06-.14-.06s1 .47 1 .46c.34.17.67.35 1 .54.74.42 1.88 1.16 2.29 1.47.25.2 1.31 1.16 1.79 1.64a17.91 17.91 0 011.54 1.75c1.66 2.3 4.57 3.42 7.19 1.89 2.27-1.32 3.57-4.88 1.89-7.19A29.45 29.45 0 002891.19 976.2zM2898 986.49l.21 0zM2973.08 990.38a2.4 2.4 0 00.62-.56 5.12 5.12 0 00-.66-2.16C2972.42 986.58 2973.9 990.07 2973.08 990.38zM2997 979.86l.28 0zM3008.74 986.1c.38.35-.3-.5 0 0z" class="color600000 svgShape"></path><path fill="#600000" d="M2990.5 969.55a38.71 38.71 0 00-16.93 6.68c-5 3.49-13.67 9.67-9.61 16.74a5.24 5.24 0 009.74-3.15 2.4 2.4 0 01-.62.56c.82-.31-.66-3.8 0-2.72a5.12 5.12 0 01.66 2.16c.24-.28.48-.57.6-.69.81-.77 1.64-1.52 2.49-2.23a37.41 37.41 0 015.18-3.54 27 27 0 0111.3-3.58 24 24 0 012.94 0s.91.1 1 .1l-.28 0 .28 0c.34.06.69.12 1 .2a17.91 17.91 0 015 1.71 21.84 21.84 0 012.5 1.51l.42.3.22.16-.22-.16s0 0 .19.16c.33.29.65.58 1 .89s.72.75 1.08 1.14l.28.28c-.3-.5.38.35 0 0l.2.3a21.88 21.88 0 011.58 2.74c1.24 2.56 4.88 3.24 7.2 1.89a5.37 5.37 0 001.88-7.19C3014.46 973.19 3001.81 968.05 2990.5 969.55zM3006.22 983.63l.22.16zM2907.41 1005.88c-1.22-1.45-3.65-2-5-.74l-1.76 1.25a66.82 66.82 0 00-.82 13.33c.11 3 1.24 6.79 4.21 6.92s4.42-3.42 4.8-6.32a45.28 45.28 0 00.27-9.09A9.24 9.24 0 002907.41 1005.88zM2988.77 1000.91l.57 2.79c-3.24 4.35-3.27 10.22-3.16 15.65 0 1.74.15 3.66 1.37 4.9 1.87 1.9 5.35.91 6.9-1.26s1.71-5 1.82-7.67c.12-3 .22-6.16-.85-9S2991.81 1001 2988.77 1000.91z" class="color600000 svgShape"></path><path fill="#ff5600" d="M2788.47 1180.26l-12.21-9.41c-4-3.29-7.85-6-10.35-11.25-1.09 2.77-.7 6 .2 8.93a30.45 30.45 0 004.17 7.89 54.15 54.15 0 0011.85 12.23 55 55 0 0015 8.1 41.47 41.47 0 0016.86 2.47c-4.48-3.74-8.86-6.69-13.07-9.83S2792.54 1183.34 2788.47 1180.26zM2922.44 1208.31c-4.24 1.28-8.54 2.28-13 3.2s-9.14 1.48-14.43 2.26a28.27 28.27 0 0014.58 5.92 38.12 38.12 0 0015.88-1.3 38.61 38.61 0 0014-7.55 28.47 28.47 0 009-13c-4.87 2.22-9.07 4.25-13.34 6S2926.68 1207 2922.44 1208.31z" class="colorff5600 svgShape"></path><path fill="#ff5600" d="M2916.16,1526c-6.54-13.31-10.1-27.92-12.57-42.57-4.71-29.42-5.33-59.46-3.54-89.25.77-14.91,2.12-29.81,4.14-44.61s5-29.54,6.82-44.48c2-14.9,3.73-29.85,4.78-44.87.5-7.51.72-15,.76-22.56s-.17-15.1-1.74-22.47c1.56,14.93,0,30-1.58,44.81s-3.74,29.72-6.2,44.49-5.33,29.46-7.56,44.41-3.72,29.93-4.66,45c-1.4,30.09-.82,60.48,4.8,90.26,3,14.8,7.06,29.58,14.27,43a63,63,0,0,0,14,17.89,35.85,35.85,0,0,0,20.53,8.82,36.84,36.84,0,0,1-19.61-9.85A61.28,61.28,0,0,1,2916.16,1526Z" class="colorff5600 svgShape"></path><path fill="#ff5600" d="M2889.73,1615.69c-16.07-1.35-31.77-5.34-47.09-10.13-30.71-9.72-59.67-24.26-88.31-39.19l-42.9-22.76-21.58-11.23a163.73,163.73,0,0,1-20.48-12,88.93,88.93,0,0,1-29.5-35.39c-6.47-14.16-9.1-29.91-9.59-45.69-1-31.77,5.52-63.64,11.74-95.32,3.16-15.87,6.36-31.81,8.87-47.92,2.55-16.28,3.51-32.21,7.49-47.62,4-15.26,10.47-30.21,21.38-41.49,5.14-5.94,11.82-10.23,18.65-14a101.63,101.63,0,0,1,22.36-7.8,216.2,216.2,0,0,1,23.79-3.58c7.93-.78,16.37-1.14,24.17-4.13a33,33,0,0,0,18.19-16.13,42,42,0,0,0,3-24,41.38,41.38,0,0,1-4.1,23.41,31.43,31.43,0,0,1-17.83,14.67c-7.52,2.56-15.53,2.61-23.68,3.1a218.56,218.56,0,0,0-24.35,2.74,102.93,102.93,0,0,0-23.59,7.6c-7.34,3.85-14.62,8.34-20.3,14.56-12,11.9-19.12,27.61-23.71,43.4-4.54,15.94-5.9,32.48-8.41,48.17-2.6,15.88-5.89,31.69-9.18,47.55-6.44,31.69-13.34,63.86-12.61,97.06.6,16.51,3.51,33.33,10.65,48.67s18.59,28.52,32.25,38.16a171.27,171.27,0,0,0,21.51,12.37l21.6,11c14.36,7.46,28.78,14.87,43.31,22.08,29.08,14.31,58.62,28.36,90,37.45,15.72,4.26,31.77,7.7,48.08,8.45a173.16,173.16,0,0,0,48.39-4.28A186.25,186.25,0,0,1,2889.73,1615.69Z" class="colorff5600 svgShape"></path><path fill="#841539" d="M2964.76,1121.2a108.12,108.12,0,0,1-23,8.82c-11.39,2.91-23.15,3.94-34.86,5-23.51,2-47.34,4.08-70.59,0-13.19-2.28-27.39-7.64-33.22-19.68-2.39-4.93-3.09-10.48-3.76-15.92l-5.46-44.36-27.94,42.83c10.39,5.75,13.3,19.14,20.42,28.65,6.34,8.45,16.15,13.78,26.32,16.62s20.83,3.43,31.38,4l26.65,1.44c12.17.66,24.37,1.32,36.54.65a167.75,167.75,0,0,0,41.26-7.52c4.43-1.4,8.9-3,12.43-6s6-7.66,5.22-12.24Z" class="color841539 svgShape"></path><path fill="#a92c56" d="M3052.43,945.92a126.66,126.66,0,0,0-38-7.93l1.48-2.9a103.66,103.66,0,0,0-15.54-32.9c-20.37-28.92-54.18-46.89-89.19-51.91s-71,2.08-103.57,16c-18.16,7.75-35.58,17.71-50,31.15s-25.89,30.56-30.67,49.72c-2.95,11.78-3.35,24-3.18,36.16.49,34.15,5.67,69,21.65,99.14,4.2,7.94,10.4,16.32,19.36,17,6.31.5,12.39-3.2,16.29-8.18s6-11.14,7.71-17.23a233.71,233.71,0,0,0,4.16-111.55l1.36,1.53H3050l-4.63-.4,10.3-1a10.37,10.37,0,0,0,4.86-1.3c3-2,3-6.72.88-9.64S3055.8,947.19,3052.43,945.92Z" class="colora92c56 svgShape"></path><path fill="#f66d5c" d="M2785.05 940.34c4.85-2.17 10.57-3.09 16.52-4.08a32.41 32.41 0 00-18.29-1.3 22.63 22.63 0 00-15.49 12.24c-1.29 3.29-2.27 6.94-.76 11.21a10.44 10.44 0 004.07 4.78 16.39 16.39 0 004.76 2.1c6.59 1.83 12.75.43 18.4-1.48-5.94-1-11.87-1.53-16.4-3.84-2.24-1.18-4.29-2.71-4.36-3.93-.44-1.35 0-3.86.94-5.87C2776.27 946 2780.31 942.45 2785.05 940.34zM2912.72 929.85c-31.61 1.4-63 3.29-94.66 4.35 31.46 4.67 63.4 4.09 95 2.93 31.62-1.39 63-3.38 94.66-4.68C2976.18 928 2944.26 928.67 2912.72 929.85z" class="colorf66d5c svgShape"></path><path fill="#600000" d="M3100.09,1456.12l-50.42-21.39-6.16,14.52,50.42,21.4a36.54,36.54,0,0,1,22.31,33.7v108.83H3132V1504.35A52.31,52.31,0,0,0,3100.09,1456.12Z" class="color600000 svgShape"></path><ellipse cx="2957.43" cy="1409.28" fill="#600000" rx="61.77" ry="94.97" transform="rotate(-69.85 2957.428 1409.283)" class="color600000 svgShape"></ellipse><path fill="#600000" d="M3174.31,1617.72l-2.62-2.11a36.68,36.68,0,0,0-33.34-6.61l-185.91,54.69a24.43,24.43,0,0,0-17.52,22.62l-.14,4.15a24.44,24.44,0,0,0,28.5,24.9l194.17-32.93a36.66,36.66,0,0,0,26.76-20h0A36.66,36.66,0,0,0,3174.31,1617.72Z" class="color600000 svgShape"></path><path fill="#f9baa8" d="M3069,1619c-6.36-7.8-16-12-25.46-15.6a388.89,388.89,0,0,0-43.11-13.56c-11.85-3-24.45-5.39-36.15-1.88-12.16,3.64-22,13.68-26.29,25.62s-3.26,25.52,1.9,37.11c2.79,12.83,18,11.75,30,17.12s25.36,11.44,30.16,23.66c3.15,8,1.91,17.5,6.09,25,4.67,8.44,15.15,12.27,24.78,11.77s18.67-4.54,27.45-8.52,18-8.45,22.47-16.93c2.54-4.88,3.13-10.52,3.36-16a147,147,0,0,0-6.77-50.59C3075.45,1630.08,3073,1624,3069,1619Z" class="colorf9baa8 svgShape"></path><path fill="#f96d66" d="M3035.22 1698a74.05 74.05 0 00-8.62-12.93 61.82 61.82 0 00-11.16-10.7c5.17 8.93 10.64 17.26 15.11 26a72.87 72.87 0 015.63 13.42 31 31 0 011.18 14.53c3-4.32 3.58-10.14 2.84-15.37A46 46 0 003035.22 1698zM3053.11 1690.56a73.55 73.55 0 00-8.63-12.93 61.44 61.44 0 00-11.15-10.7c5.17 8.93 10.64 17.26 15.11 26a73.07 73.07 0 015.63 13.41 31 31 0 011.18 14.53c3-4.32 3.58-10.14 2.84-15.36A46 46 0 003053.11 1690.56zM3076.66 1679.5a73.55 73.55 0 00-8.63-12.93 61.77 61.77 0 00-11.15-10.7c5.17 8.93 10.64 17.26 15.11 26a73.07 73.07 0 015.63 13.41 31.06 31.06 0 011.18 14.54c3-4.33 3.58-10.15 2.84-15.37A46 46 0 003076.66 1679.5z" class="colorf96d66 svgShape"></path></g></svg></g></svg>