<svg width="31" height="37" viewBox="0 0 31 37" fill="none" xmlns="http://www.w3.org/2000/svg">
<path d="M30.106 18.5C30.106 18.0093 29.9084 17.5388 29.5568 17.1919C29.2052 16.8449 28.7282 16.65 28.231 16.65H13.9997L18.3122 12.4135C18.487 12.241 18.6257 12.0362 18.7203 11.8109C18.8149 11.5855 18.8636 11.3439 18.8636 11.1C18.8636 10.8561 18.8149 10.6145 18.7203 10.3891C18.6257 10.1638 18.487 9.95899 18.3122 9.7865C18.1374 9.61401 17.9298 9.47718 17.7014 9.38383C17.473 9.29048 17.2282 9.24243 16.981 9.24243C16.7337 9.24243 16.4889 9.29048 16.2605 9.38383C16.0321 9.47718 15.8245 9.61401 15.6497 9.7865L8.14971 17.1865C7.97901 17.3624 7.8452 17.5699 7.75596 17.797C7.56842 18.2474 7.56842 18.7526 7.75596 19.203C7.8452 19.4301 7.97901 19.6376 8.14971 19.8135L15.6497 27.2135C15.824 27.3869 16.0314 27.5245 16.2599 27.6185C16.4884 27.7124 16.7334 27.7607 16.981 27.7607C17.2285 27.7607 17.4736 27.7124 17.702 27.6185C17.9305 27.5245 18.1379 27.3869 18.3122 27.2135C18.4879 27.0415 18.6274 26.8369 18.7226 26.6115C18.8178 26.386 18.8668 26.1442 18.8668 25.9C18.8668 25.6558 18.8178 25.414 18.7226 25.1885C18.6274 24.9631 18.4879 24.7585 18.3122 24.5865L13.9997 20.35H28.231C28.7282 20.35 29.2052 20.1551 29.5568 19.8081C29.9084 19.4612 30.106 18.9907 30.106 18.5ZM24.481 0H5.73096C4.23911 0 2.80837 0.584731 1.75348 1.62556C0.698589 2.66638 0.105957 4.07805 0.105957 5.55V31.45C0.105957 32.922 0.698589 34.3336 1.75348 35.3744C2.80837 36.4153 4.23911 37 5.73096 37H24.481C25.9728 37 27.4035 36.4153 28.4584 35.3744C29.5133 34.3336 30.106 32.922 30.106 31.45V25.9C30.106 25.4093 29.9084 24.9388 29.5568 24.5919C29.2052 24.2449 28.7282 24.05 28.231 24.05C27.7337 24.05 27.2568 24.2449 26.9051 24.5919C26.5535 24.9388 26.356 25.4093 26.356 25.9V31.45C26.356 31.9407 26.1584 32.4112 25.8068 32.7582C25.4552 33.1051 24.9782 33.3 24.481 33.3H5.73096C5.23368 33.3 4.75676 33.1051 4.40513 32.7582C4.0535 32.4112 3.85596 31.9407 3.85596 31.45V5.55C3.85596 5.05935 4.0535 4.5888 4.40513 4.24185C4.75676 3.89491 5.23368 3.7 5.73096 3.7H24.481C24.9782 3.7 25.4552 3.89491 25.8068 4.24185C26.1584 4.5888 26.356 5.05935 26.356 5.55V11.1C26.356 11.5907 26.5535 12.0612 26.9051 12.4081C27.2568 12.7551 27.7337 12.95 28.231 12.95C28.7282 12.95 29.2052 12.7551 29.5568 12.4081C29.9084 12.0612 30.106 11.5907 30.106 11.1V5.55C30.106 4.07805 29.5133 2.66638 28.4584 1.62556C27.4035 0.584731 25.9728 0 24.481 0Z" fill="white"/>
</svg>
